<svg width="26" height="39" viewBox="0 0 26 39" fill="none" xmlns="http://www.w3.org/2000/svg">
<path d="M25.9912 3.24993C25.9912 3.56219 25.8125 3.91383 25.545 4.14844L8.00062 19.4998L25.545 34.8511C25.8131 35.0857 25.9912 35.4368 25.9912 35.7496C25.9912 36.0624 25.8125 36.4135 25.545 36.6481L23.3131 38.601C23.045 38.8356 22.6437 38.9915 22.2862 38.9915C21.9287 38.9915 21.5275 38.8351 21.2594 38.601L0.455619 20.3977C0.187494 20.1631 0.0093689 19.812 0.0093689 19.4992C0.0093689 19.1864 0.188119 18.8353 0.455619 18.6007L21.2594 0.397427C21.5275 0.162818 21.9287 0.00695801 22.2862 0.00695801C22.6437 0.00695801 23.045 0.163365 23.3131 0.397427L25.545 2.35032C25.8131 2.58493 25.9912 2.89719 25.9912 3.24883V3.24993Z" fill="#2F4F4F"/>
</svg>
